<?xml version="1.0" encoding="utf-8"?>
<!-- Generator: Adobe Illustrator 23.0.2, SVG Export Plug-In . SVG Version: 6.00 Build 0)  -->
<svg version="1.1" id="Layer_1" xmlns="http://www.w3.org/2000/svg" xmlns:xlink="http://www.w3.org/1999/xlink" x="0px" y="0px"
	 viewBox="0 0 595.28 265" style="enable-background:new 0 0 595.28 265;" xml:space="preserve">
<style type="text/css">
	.st0{fill:none;}
	.st1{fill:#FFFFFF;}
	.st2{font-family:'TimesNewRomanPSMT';}
	.st3{font-size:38px;}
	.st4{letter-spacing:-2;}
	.st5{fill:#D1D3D4;}
	.st6{font-size:10px;}
	.st7{letter-spacing:2;}
	.st8{font-family:'Calibri-Light';}
	.st9{font-size:13px;}
	.st10{letter-spacing:10;}
	.st11{letter-spacing:9;}
</style>
<rect x="12" y="71" class="st0" width="305" height="114"/>
<text transform="matrix(1 0 0 1 12 97.4097)"><tspan x="0" y="0" class="st1 st2 st3 st4">We invent </tspan><tspan x="0" y="39" class="st1 st2 st3 st4">technologies to rewrite </tspan><tspan x="0" y="78" class="st1 st2 st3 st4">the human genome.</tspan></text>
<text transform="matrix(1 0 0 1 16 56)" class="st5 st2 st6 st7">OUR RESEARCH</text>
<rect x="325" y="70" class="st0" width="266" height="155"/>
<text transform="matrix(1 0 0 1 325 78.814)"><tspan x="0" y="0" class="st1 st8 st9">Our</tspan><tspan x="19.35" y="0" class="st1 st8 st9 st7"> </tspan><tspan x="24.31" y="0" class="st1 st8 st9">team</tspan><tspan x="50.89" y="0" class="st1 st8 st9 st7"> </tspan><tspan x="55.86" y="0" class="st1 st8 st9">builds</tspan><tspan x="86.1" y="0" class="st1 st8 st9 st7"> </tspan><tspan x="91.07" y="0" class="st1 st8 st9">technologies</tspan><tspan x="156.08" y="0" class="st1 st8 st9 st7"> </tspan><tspan x="161.05" y="0" class="st1 st8 st9">for</tspan><tspan x="175.8" y="0" class="st1 st8 st9 st7"> </tspan><tspan x="180.76" y="0" class="st1 st8 st9">a</tspan><tspan x="186.75" y="0" class="st1 st8 st9 st7"> </tspan><tspan x="191.72" y="0" class="st1 st8 st9">world</tspan><tspan x="221.04" y="0" class="st1 st8 st9 st7"> </tspan><tspan x="226" y="0" class="st1 st8 st9">without </tspan><tspan x="0" y="15" class="st1 st8 st9">diseases.</tspan><tspan x="45.68" y="15" class="st1 st8 st9"> </tspan><tspan x="47.99" y="15" class="st1 st8 st9">We</tspan><tspan x="65.61" y="15" class="st1 st8 st9"> </tspan><tspan x="67.91" y="15" class="st1 st8 st9">build</tspan><tspan x="93.26" y="15" class="st1 st8 st9"> </tspan><tspan x="95.57" y="15" class="st1 st8 st9">technologies</tspan><tspan x="160.59" y="15" class="st1 st8 st9"> </tspan><tspan x="162.9" y="15" class="st1 st8 st9">so</tspan><tspan x="174.44" y="15" class="st1 st8 st9"> </tspan><tspan x="176.75" y="15" class="st1 st8 st9">that</tspan><tspan x="197.65" y="15" class="st1 st8 st9"> </tspan><tspan x="199.96" y="15" class="st1 st8 st9">we</tspan><tspan x="215.21" y="15" class="st1 st8 st9"> </tspan><tspan x="217.51" y="15" class="st1 st8 st9">can</tspan><tspan x="235.53" y="15" class="st1 st8 st9"> </tspan><tspan x="237.83" y="15" class="st1 st8 st9">make </tspan><tspan x="0" y="30" class="st1 st8 st9">pinpoint</tspan><tspan x="42.76" y="30" class="st1 st8 st9 st7"> </tspan><tspan x="47.73" y="30" class="st1 st8 st9">changes</tspan><tspan x="89.52" y="30" class="st1 st8 st9 st7"> </tspan><tspan x="94.48" y="30" class="st1 st8 st9">to</tspan><tspan x="105.27" y="30" class="st1 st8 st9 st7"> </tspan><tspan x="110.24" y="30" class="st1 st8 st9">genes</tspan><tspan x="140.31" y="30" class="st1 st8 st9 st7"> </tspan><tspan x="145.27" y="30" class="st1 st8 st9">with</tspan><tspan x="167.73" y="30" class="st1 st8 st9 st7"> </tspan><tspan x="172.7" y="30" class="st1 st8 st9">CRISPR-Cas</tspan><tspan x="229.93" y="30" class="st1 st8 st9 st7"> </tspan><tspan x="234.9" y="30" class="st1 st8 st9">(Cas9, </tspan><tspan x="0" y="45" class="st1 st8 st9">Cas12,</tspan><tspan x="33.68" y="45" class="st1 st8 st9 st10"> </tspan><tspan x="47.12" y="45" class="st1 st8 st9">Cas13),</tspan><tspan x="84.56" y="45" class="st1 st8 st9 st10"> </tspan><tspan x="98" y="45" class="st1 st8 st9">deliver</tspan><tspan x="132.63" y="45" class="st1 st8 st9 st10"> </tspan><tspan x="146.07" y="45" class="st1 st8 st9">treatments</tspan><tspan x="203.09" y="45" class="st1 st8 st9 st10">   </tspan><tspan x="243.42" y="45" class="st1 st8 st9">with   </tspan><tspan x="0" y="60" class="st1 st8 st9">adeno-associated</tspan><tspan x="89.65" y="60" class="st1 st8 st9 st11"> </tspan><tspan x="102.3" y="60" class="st1 st8 st9">viruses</tspan><tspan x="137.69" y="60" class="st1 st8 st9 st11"> </tspan><tspan x="150.33" y="60" class="st1 st8 st9">(AAVs),</tspan><tspan x="187.25" y="60" class="st1 st8 st9 st11"> </tspan><tspan x="199.9" y="60" class="st1 st8 st9">make</tspan><tspan x="227.94" y="60" class="st1 st8 st9 st11"> </tspan><tspan x="240.59" y="60" class="st1 st8 st9">safer </tspan><tspan x="0" y="75" class="st1 st8 st9">therapeutics</tspan><tspan x="64.15" y="75" class="st1 st8 st9"> </tspan><tspan x="66.83" y="75" class="st1 st8 st9">that</tspan><tspan x="87.72" y="75" class="st1 st8 st9"> </tspan><tspan x="90.41" y="75" class="st1 st8 st9">bypass</tspan><tspan x="125.04" y="75" class="st1 st8 st9"> </tspan><tspan x="127.72" y="75" class="st1 st8 st9">adverse</tspan><tspan x="167.76" y="75" class="st1 st8 st9"> </tspan><tspan x="170.44" y="75" class="st1 st8 st9">immune</tspan><tspan x="213.03" y="75" class="st1 st8 st9"> </tspan><tspan x="215.71" y="75" class="st1 st8 st9">reactions, </tspan><tspan x="0" y="90" class="st1 st8 st9">fight</tspan><tspan x="23.31" y="90" class="st1 st8 st9"> </tspan><tspan x="26.82" y="90" class="st1 st8 st9">diseases,</tspan><tspan x="72.5" y="90" class="st1 st8 st9"> </tspan><tspan x="76.01" y="90" class="st1 st8 st9">and</tspan><tspan x="95.24" y="90" class="st1 st8 st9"> </tspan><tspan x="98.75" y="90" class="st1 st8 st9">save</tspan><tspan x="121.52" y="90" class="st1 st8 st9"> </tspan><tspan x="125.03" y="90" class="st1 st8 st9">lives.</tspan><tspan x="150.34" y="90" class="st1 st8 st9"> </tspan><tspan x="153.85" y="90" class="st1 st8 st9">This</tspan><tspan x="174.26" y="90" class="st1 st8 st9"> </tspan><tspan x="177.77" y="90" class="st1 st8 st9">is</tspan><tspan x="185.4" y="90" class="st1 st8 st9"> </tspan><tspan x="188.91" y="90" class="st1 st8 st9">how</tspan><tspan x="211.14" y="90" class="st1 st8 st9"> </tspan><tspan x="214.65" y="90" class="st1 st8 st9">we</tspan><tspan x="229.9" y="90" class="st1 st8 st9"> </tspan><tspan x="233.4" y="90" class="st1 st8 st9">create </tspan><tspan x="0" y="105" class="st1 st8 st9">new medicines. This is how we engineer life.</tspan></text>
</svg>
