<svg id="Layer_1" data-name="Layer 1" xmlns="http://www.w3.org/2000/svg" viewBox="0 0 586.98 177.31"><defs><style>.cls-1{font-size:39px;letter-spacing:-0.15em;}.cls-1,.cls-5{fill:#fff;}.cls-1,.cls-4{font-family:TimesNewRomanPSMT, Times New Roman;}.cls-2{letter-spacing:-0.06em;}.cls-3{letter-spacing:-0.07em;}.cls-4{font-size:10px;fill:#d1d3d4;letter-spacing:0.2em;}.cls-5{font-size:12.5px;font-family:Calibri-Light, Calibri;font-weight:300;letter-spacing:-0.01em;}.cls-6{letter-spacing:0.14em;}.cls-7{letter-spacing:-0.02em;}.cls-8{letter-spacing:0.14em;}.cls-9{letter-spacing:-0.03em;}.cls-10{letter-spacing:-0.01em;}.cls-11{letter-spacing:-0.02em;}.cls-12{letter-spacing:0.27em;}.cls-13{letter-spacing:-0.05em;}.cls-14{letter-spacing:0.27em;}.cls-15{letter-spacing:-0.04em;}.cls-16{letter-spacing:0.17em;}.cls-17{letter-spacing:-0.02em;}.cls-18{letter-spacing:-0.02em;}.cls-19{letter-spacing:0.17em;}.cls-20{letter-spacing:0.3em;}.cls-21{letter-spacing:0.3em;}.cls-22{letter-spacing:-0.02em;}.cls-23{letter-spacing:0.74em;}.cls-24{letter-spacing:-0.05em;}.cls-25{letter-spacing:-0.05em;}.cls-26{letter-spacing:-0.04em;}.cls-27{letter-spacing:-0.01em;}.cls-28{letter-spacing:-0.04em;}.cls-29{letter-spacing:-0.03em;}.cls-30{letter-spacing:-0.04em;}.cls-31{letter-spacing:-0.04em;}.cls-32{letter-spacing:-0.01em;}.cls-33{letter-spacing:-0.01em;}.cls-34{letter-spacing:0.03em;}.cls-35{letter-spacing:0.03em;}.cls-36{letter-spacing:-0.03em;}.cls-37{letter-spacing:-0.02em;}</style></defs><title>ResearchStatement_2019</title><text class="cls-1" transform="translate(0 50.42)">W<tspan class="cls-2" x="31.15" y="0">e invent technologies </tspan><tspan class="cls-3"><tspan x="0" y="40">to rewrite the human </tspan><tspan x="0" y="80">genome.</tspan></tspan></text><text x="-12" y="-47.69"/><text class="cls-4" transform="translate(4 8.31)">OUR RESEARCH</text><text class="cls-5" transform="translate(325.67 30.79)">Our<tspan class="cls-6" x="18.61" y="0"> </tspan><tspan class="cls-7" x="23.13" y="0">t</tspan><tspan x="26.99" y="0">eam</tspan><tspan class="cls-6" x="48.56" y="0"> </tspan><tspan x="53.08" y="0">builds</tspan><tspan class="cls-8" x="82.17" y="0"> </tspan><tspan class="cls-7" x="86.69" y="0">t</tspan><tspan x="90.55" y="0">echnologies</tspan><tspan class="cls-6" x="149.08" y="0"> </tspan><tspan class="cls-9" x="153.6" y="0">f</tspan><tspan class="cls-10" x="156.9" y="0">or</tspan><tspan class="cls-6" x="167.48" y="0"> </tspan><tspan class="cls-10" x="172" y="0">a</tspan><tspan class="cls-6" x="177.76" y="0"> </tspan><tspan class="cls-11" x="182.28" y="0">w</tspan><tspan class="cls-10" x="190.77" y="0">orld</tspan><tspan class="cls-8" x="210.35" y="0"> </tspan><tspan x="214.87" y="0">without </tspan><tspan x="0" y="15">diseases.</tspan><tspan class="cls-12" x="43.92" y="15"> </tspan><tspan class="cls-13" x="50.1" y="15">W</tspan><tspan x="60.53" y="15">e</tspan><tspan class="cls-12" x="66.58" y="15"> </tspan><tspan x="72.76" y="15">build</tspan><tspan class="cls-12" x="97.13" y="15"> </tspan><tspan class="cls-7" x="103.31" y="15">t</tspan><tspan x="107.17" y="15">echnologies</tspan><tspan class="cls-12" x="165.7" y="15"> </tspan><tspan x="171.87" y="15">so</tspan><tspan class="cls-12" x="182.98" y="15"> </tspan><tspan x="189.15" y="15">th</tspan><tspan class="cls-7" x="199.5" y="15">a</tspan><tspan x="205.14" y="15">t</tspan><tspan class="cls-12" x="209.12" y="15"> </tspan><tspan class="cls-7" x="215.3" y="15">w</tspan><tspan x="223.79" y="15">e</tspan><tspan class="cls-14" x="229.84" y="15"> </tspan><tspan class="cls-7" x="236.01" y="15">c</tspan><tspan x="241.08" y="15">an </tspan><tspan x="0" y="30">ma</tspan><tspan class="cls-15" x="15.52" y="30">k</tspan><tspan class="cls-10" x="20.48" y="30">e</tspan><tspan class="cls-16" x="26.53" y="30"> </tspan><tspan x="31.51" y="30">pinpoi</tspan><tspan class="cls-17" x="62.28" y="30">n</tspan><tspan x="68.53" y="30">t</tspan><tspan class="cls-16" x="72.51" y="30"> </tspan><tspan x="77.49" y="30">chan</tspan><tspan class="cls-18" x="101.18" y="30">g</tspan><tspan x="106.82" y="30">es</tspan><tspan class="cls-19" x="117.58" y="30"> </tspan><tspan class="cls-7" x="122.56" y="30">t</tspan><tspan x="126.42" y="30">o</tspan><tspan class="cls-16" x="132.82" y="30"> </tspan><tspan class="cls-18" x="137.8" y="30">g</tspan><tspan x="143.44" y="30">enes</tspan><tspan class="cls-16" x="166.62" y="30"> </tspan><tspan x="171.6" y="30">with</tspan><tspan class="cls-16" x="193.19" y="30"> </tspan><tspan x="198.17" y="30">CRISPR-Cas </tspan><tspan x="0" y="45">(Cas9,</tspan><tspan class="cls-20" x="29.79" y="45"> </tspan><tspan x="36.34" y="45">Cas12,</tspan><tspan class="cls-21" x="68.72" y="45"> </tspan><tspan x="75.28" y="45">Cas13),</tspan><tspan class="cls-20" x="111.27" y="45"> </tspan><tspan x="117.83" y="45">deli</tspan><tspan class="cls-7" x="135.51" y="45">v</tspan><tspan x="140.77" y="45">er</tspan><tspan class="cls-20" x="151" y="45"> </tspan><tspan x="157.55" y="45">t</tspan><tspan class="cls-22" x="161.54" y="45">r</tspan><tspan class="cls-10" x="165.54" y="45">e</tspan><tspan class="cls-7" x="171.59" y="45">a</tspan><tspan x="177.22" y="45">tme</tspan><tspan class="cls-11" x="197.02" y="45">n</tspan><tspan x="203.27" y="45">ts</tspan><tspan class="cls-21" x="211.96" y="45" xml:space="preserve">   </tspan><tspan x="231.62" y="45" xml:space="preserve">with   </tspan><tspan x="0" y="60">adeno-associ</tspan><tspan class="cls-7" x="64.04" y="60">at</tspan><tspan x="73.54" y="60">ed</tspan><tspan class="cls-23" x="85.96" y="60"> </tspan><tspan x="98.04" y="60">viruses</tspan><tspan class="cls-23" x="132.07" y="60"> </tspan><tspan x="144.16" y="60">(A</tspan><tspan class="cls-24" x="154.69" y="60">A</tspan><tspan class="cls-25" x="161.12" y="60">V</tspan><tspan x="167.37" y="60">s),</tspan><tspan class="cls-23" x="178.62" y="60"> </tspan><tspan class="cls-10" x="190.71" y="60">ma</tspan><tspan class="cls-26" x="206.23" y="60">k</tspan><tspan x="211.19" y="60">e</tspan><tspan class="cls-23" x="217.24" y="60"> </tspan><tspan x="229.32" y="60">s</tspan><tspan class="cls-27" x="234.03" y="60">a</tspan><tspan class="cls-28" x="239.73" y="60">f</tspan><tspan class="cls-10" x="242.98" y="60">er </tspan><tspan x="0" y="75">the</tspan><tspan class="cls-29" x="16.4" y="75">r</tspan><tspan x="20.34" y="75">apeutics</tspan><tspan class="cls-30" x="61.44" y="75"> </tspan><tspan x="63.72" y="75">th</tspan><tspan class="cls-7" x="74.07" y="75">a</tspan><tspan x="79.71" y="75">t</tspan><tspan class="cls-31" x="83.69" y="75"> </tspan><tspan class="cls-32" x="85.98" y="75">b</tspan><tspan x="92.29" y="75">ypass</tspan><tspan class="cls-30" x="119.22" y="75"> </tspan><tspan class="cls-10" x="121.5" y="75">ad</tspan><tspan class="cls-7" x="133.63" y="75">v</tspan><tspan class="cls-33" x="138.88" y="75">e</tspan><tspan class="cls-29" x="144.94" y="75">r</tspan><tspan x="148.88" y="75">se</tspan><tspan class="cls-31" x="159.64" y="75"> </tspan><tspan class="cls-33" x="161.92" y="75">immune</tspan><tspan class="cls-30" x="202.87" y="75"> </tspan><tspan class="cls-22" x="205.16" y="75">r</tspan><tspan x="209.16" y="75">eactions, </tspan><tspan x="0" y="90">fig</tspan><tspan class="cls-7" x="12.06" y="90">h</tspan><tspan x="18.31" y="90">t</tspan><tspan class="cls-34" x="22.29" y="90"> </tspan><tspan x="25.52" y="90">diseases,</tspan><tspan class="cls-35" x="69.45" y="90"> </tspan><tspan x="72.68" y="90">and</tspan><tspan class="cls-34" x="91.18" y="90"> </tspan><tspan x="94.42" y="90">s</tspan><tspan class="cls-36" x="99.13" y="90">a</tspan><tspan class="cls-7" x="104.67" y="90">v</tspan><tspan x="109.92" y="90">e</tspan><tspan class="cls-34" x="115.97" y="90"> </tspan><tspan x="119.21" y="90">li</tspan><tspan class="cls-7" x="124.48" y="90">v</tspan><tspan x="129.73" y="90">es.</tspan><tspan class="cls-34" x="143.42" y="90"> </tspan><tspan x="146.66" y="90">This</tspan><tspan class="cls-35" x="166.28" y="90"> </tspan><tspan x="169.52" y="90">is</tspan><tspan class="cls-34" x="176.86" y="90"> </tspan><tspan x="180.1" y="90">h</tspan><tspan class="cls-27" x="186.47" y="90">o</tspan><tspan x="192.8" y="90">w</tspan><tspan class="cls-34" x="201.41" y="90"> </tspan><tspan class="cls-7" x="204.64" y="90">w</tspan><tspan x="213.13" y="90">e</tspan><tspan class="cls-34" x="219.18" y="90"> </tspan><tspan x="222.42" y="90">c</tspan><tspan class="cls-37" x="227.61" y="90">r</tspan><tspan x="231.61" y="90">e</tspan><tspan class="cls-7" x="237.66" y="90">at</tspan><tspan x="247.16" y="90">e </tspan><tspan x="0" y="105">n</tspan><tspan class="cls-27" x="6.37" y="105">e</tspan><tspan x="12.36" y="105">w medicines. This is h</tspan><tspan class="cls-32" x="117.82" y="105">o</tspan><tspan x="124.15" y="105">w </tspan><tspan class="cls-7" x="135.46" y="105">w</tspan><tspan x="143.95" y="105">e engineer li</tspan><tspan class="cls-28" x="204.12" y="105">f</tspan><tspan x="207.36" y="105">e.</tspan></text></svg>